<?xml version="1.0" encoding="iso-8859-1"?>
<!-- Uploaded to: SVG Repo, www.svgrepo.com, Generator: SVG Repo Mixer Tools -->
<!DOCTYPE svg PUBLIC "-//W3C//DTD SVG 1.1//EN" "http://www.w3.org/Graphics/SVG/1.1/DTD/svg11.dtd">
<svg fill="#000000" version="1.1" id="Capa_1" xmlns="http://www.w3.org/2000/svg" xmlns:xlink="http://www.w3.org/1999/xlink" 
	 width="800px" height="800px" viewBox="0 0 45.856 45.855"
	 xml:space="preserve">
<g>
	<path d="M38.624,39.947h-2.109c3.672-2.873,5.956-6.885,5.956-11.333c0-7.791-7.006-14.261-16.21-15.537L23.583,0.532
		c-0.053-0.251-0.25-0.46-0.516-0.517c-0.363-0.078-0.721,0.154-0.798,0.517l-2.676,12.546c-9.203,1.277-16.207,7.749-16.207,15.538
		c0,4.448,2.284,8.46,5.957,11.333H7.209c-1.113,0-1.991,0.897-1.991,2.012v1.879c0,1.113,0.878,2.017,1.991,2.017h31.415
		c1.127,0,2.031-0.913,2.031-2.039v-1.834C40.657,40.855,39.75,39.947,38.624,39.947z M25.73,30.961
		c0,0.327-0.261,0.606-0.589,0.606h-4.426c-0.327,0-0.572-0.279-0.572-0.606v-4.982c0-1.549,1.244-2.806,2.794-2.806
		s2.793,1.256,2.793,2.806V30.961z"/>
</g>
</svg>